<svg width="1156" height="262" viewBox="0 0 1156 262" fill="none" xmlns="http://www.w3.org/2000/svg">
<g clip-path="url(#clip0_0_1318)">
<rect width="1156" height="262" rx="16" fill="url(#paint0_linear_0_1318)"/>
<path d="M1177.45 112.488C1174.33 112.488 1171.2 112.459 1168.05 112.41C1142.76 112.003 1116.09 109.974 1088.77 106.365C1038.56 99.737 987.309 88.015 940.597 72.4696C906.599 61.1551 883.317 44.882 860.804 29.1523C844.662 17.8669 829.407 7.20248 810.574 -1.69581C789.259 -11.7683 767.056 -17.804 740.729 -20.6763C702.37 -24.8683 671.401 -22.1706 643.301 -12.1952C618.171 -3.27746 598.245 10.4145 577.151 24.9215C553.559 41.1461 529.153 57.9141 494.401 70.5774C393.617 107.296 308.531 117.145 190.895 105.714C166.313 103.327 141.198 100.727 116.926 98.2233C4.62659 86.6273 -111.501 74.6238 -226.136 77.2826C-251.31 77.8649 -282.471 84.5216 -315.479 91.5665C-354.046 99.7953 -393.913 108.315 -429.109 108.315C-429.345 108.315 -429.582 108.315 -429.818 108.315C-448.976 108.257 -464.763 105.666 -478.082 100.397C-492.953 94.5261 -504.704 85.0941 -513.056 72.3823L-513.485 71.7322L-512.805 72.2853C-499.22 83.3669 -485.162 91.2366 -469.804 96.3504C-456.101 100.921 -441.629 103.172 -425.605 103.25C-395.731 103.386 -365.753 95.9914 -334.001 88.1605C-311.857 82.707 -288.975 77.0595 -266.092 74.1969C-216.365 67.9768 -150.127 64.5514 -84.3763 64.8134C-14.324 65.0851 49.7858 69.4518 96.1276 77.108C100.163 77.7775 104.228 78.4471 108.323 79.1264C166.505 88.7719 226.653 98.7473 287.156 100.969C356.203 103.502 413.173 95.0695 461.319 75.1867C497.742 60.1459 522.886 38.07 547.202 16.7121C587.395 -18.5802 625.34 -51.9125 708.342 -48.7976C742.326 -47.5264 769.599 -41.8303 794.151 -30.8942C816.058 -21.1323 833.147 -8.38165 851.24 5.11621C869.082 18.42 887.515 32.1895 912.379 44.5326C933.384 54.9641 957.449 63.8722 983.909 71.0044C1008.93 77.7582 1036.1 82.9205 1064.65 86.3557C1119.02 92.9057 1176.55 93.0609 1231.05 86.802C1285.88 80.5043 1349.13 57.5162 1416.11 33.1696C1486.56 7.56157 1559.42 -18.9199 1629.71 -28.7206C1667.76 -34.0285 1701.22 -33.9606 1732.04 -28.5071C1748.82 -25.5378 1764.93 -20.88 1779.95 -14.6697C1795.75 -8.11966 1810.86 0.380814 1824.86 10.5891L1825.16 10.8026L1824.71 10.7443C1772.43 3.8159 1716.77 -3.10283 1661.78 -4.83009C1633 -5.74224 1606.53 -5.19884 1580.85 -3.19987C1552.43 -0.977726 1525.78 2.98141 1499.37 8.89096C1453.77 19.109 1417.19 38.3902 1381.8 57.0407C1361.49 67.7439 1340.48 78.8158 1318.19 87.9082C1293.21 98.0971 1269.1 104.705 1244.47 108.131C1223.64 111.022 1201.15 112.488 1177.47 112.488H1177.45ZM707.913 -22.7722C718.275 -22.7722 729.199 -22.1318 740.788 -20.8703C767.174 -17.9883 789.406 -11.9429 810.766 -1.85104C829.628 7.06666 844.884 17.731 861.04 29.0261C883.524 44.7461 906.791 61.0095 940.745 72.3046C987.442 87.8403 1038.65 99.5527 1088.85 106.18C1116.13 109.78 1142.79 111.808 1168.06 112.216C1195.17 112.653 1220.87 111.217 1244.41 107.937C1269 104.521 1293.09 97.9127 1318.03 87.7336C1340.3 78.6509 1361.31 67.579 1381.61 56.8758C1417.01 38.2156 1453.62 18.9149 1499.27 8.68716C1525.69 2.76791 1552.37 -1.19118 1580.81 -3.41333C1606.5 -5.42199 1632.99 -5.9557 1661.78 -5.05325C1716.64 -3.326 1772.15 3.55393 1824.33 10.4727C1810.43 0.371117 1795.44 -8.04202 1779.78 -14.5338C1764.79 -20.7442 1748.7 -25.3922 1731.96 -28.3519C1701.18 -33.7859 1667.76 -33.8539 1629.77 -28.5557C1559.52 -18.7549 1486.69 7.71679 1416.25 33.3152C1349.25 57.6618 1285.97 80.6693 1231.09 86.967C1176.56 93.2259 1118.99 93.0706 1064.59 86.5206C1036.03 83.0855 1008.85 77.9134 983.791 71.1596C957.316 64.0177 933.236 55.1097 912.201 44.6588C887.323 32.306 868.86 18.5364 851.018 5.22293C832.94 -8.26521 815.866 -21.0061 793.989 -30.7486C769.48 -41.6653 742.266 -47.342 708.327 -48.6132C625.488 -51.7184 587.572 -18.425 547.439 16.8189C523.108 38.1864 497.948 60.2818 461.481 75.3419C413.277 95.2442 356.248 103.686 287.141 101.154C226.624 98.9316 166.446 88.9562 108.264 79.301C104.184 78.6218 100.119 77.9522 96.0684 77.2826C49.7415 69.6361 -14.3388 65.2695 -84.3615 64.9881C-150.097 64.7261 -216.306 68.1515 -266.018 74.3715C-288.871 77.2341 -311.754 82.872 -333.883 88.3255C-365.383 96.0884 -395.14 103.434 -424.792 103.434C-425.059 103.434 -425.325 103.434 -425.591 103.434C-441.674 103.366 -456.175 101.096 -469.922 96.5154C-485.044 91.4792 -498.925 83.7648 -512.332 72.9548C-504.039 85.2979 -492.465 94.4776 -477.919 100.222C-464.645 105.472 -448.902 108.053 -429.804 108.111C-394.504 108.228 -354.371 99.6594 -315.553 91.3725C-282.53 84.3276 -251.354 77.6708 -226.136 77.0789C-111.472 74.4201 4.6709 86.4138 116.985 98.0195C141.257 100.523 166.372 103.124 190.954 105.511C221.479 108.48 249.846 110.013 276.838 110.013C353.764 110.013 419.722 97.5634 494.283 70.4027C528.991 57.7588 553.381 40.9908 576.959 24.7856C598.067 10.2786 618.008 -3.43277 643.182 -12.3699C662.857 -19.3468 683.922 -22.7722 707.943 -22.7722H707.913Z" fill="white" fill-opacity="0.4"/>
<path d="M328.162 130.585C281.525 130.585 233.867 126.024 187.008 121.532C161.82 119.115 138.035 116.845 114.295 115.224C79.5278 112.857 43.4004 110.062 8.45557 107.364C-80.2368 100.504 -171.93 93.4006 -258.686 91.8383C-261.051 91.7995 -263.431 91.7898 -265.811 91.8286C-286.535 94.7009 -308.339 99.3587 -330.896 104.172C-398.524 118.611 -468.473 133.535 -517.476 99.5722L-517.283 99.4266C-505.206 105.491 -492.509 109.654 -478.451 112.168C-465.931 114.399 -452.627 115.263 -437.771 114.797C-410.173 113.924 -381.348 108.48 -353.469 103.211C-324.377 97.7188 -294.385 92.0518 -265.855 91.6345C-252.389 89.7714 -239.381 88.6652 -226.905 88.7331C-115.669 89.4415 0.73938 96.3505 139.44 110.479C210.009 117.67 264.052 120.309 314.711 119.057C376.115 117.534 432.11 109.984 485.887 95.9721C503.551 91.3725 519.693 85.0069 534.963 77.8456C535.821 77.3507 536.663 76.8558 537.521 76.3706C553.988 66.8415 569.627 57.7977 587.484 50.2191C606.109 40.0884 624.306 30.7244 644.513 23.6115C657.374 19.0896 669.791 15.9262 682.488 13.9467C696.709 11.7342 710.929 11.0452 725.977 11.8507C750.486 13.1607 775.275 18.3036 801.78 27.5804C825.416 35.8576 848.255 46.5996 870.339 56.9923C900.908 71.3829 932.527 86.2587 967.117 95.0599C1015.28 107.316 1066.79 114.496 1120.24 116.418C1172.29 118.281 1224.78 115.117 1276.24 107.015C1321.37 99.9021 1376.7 78.5539 1435.28 55.9443C1469.63 42.689 1505.15 28.9777 1540.79 17.2653C1581.13 4.01008 1615.75 -4.67472 1646.63 -9.28398C1684.09 -14.8733 1716.42 -14.6502 1745.45 -8.60477C1761.3 -5.30551 1776.26 -0.162498 1789.93 6.66891C1804.34 13.8788 1817.78 23.2137 1829.87 34.4118L1830.11 34.6349L1829.71 34.5671C1819.35 32.7622 1808.91 30.8893 1798.8 29.0747C1698.27 11.0064 1603.29 -6.05269 1508.95 32.3449C1499.89 36.0323 1490.82 39.7682 1482.04 43.3683C1438.99 61.0581 1398.34 77.7679 1354.97 91.586C1306.17 107.131 1261.3 116.67 1213.73 121.59C1185.51 124.511 1157.11 125.762 1129.34 125.316C1102.51 124.889 1075.29 122.851 1048.48 119.28C997.879 112.536 947.176 100.31 893.473 81.892C883.214 78.3792 872.955 74.7307 863.036 71.1985C830.767 59.7191 800.287 48.88 767.515 41.3596C749.909 37.3229 733.324 34.6349 716.783 33.1309C698.29 31.4618 680.286 31.3066 661.734 32.6651C636.575 34.5088 614.446 39.5547 592.096 48.5209C590.603 49.1226 589.14 49.7242 587.676 50.3452C584.261 52.1986 580.847 54.0812 577.388 55.9734C563.729 63.4647 549.849 71.0821 535.156 77.9717C512.775 90.9067 489.435 104.113 459.604 113.332C417.875 126.228 373.499 130.546 328.147 130.546L328.162 130.585ZM-262.529 91.6151C-261.228 91.6151 -259.942 91.6248 -258.656 91.6539C-171.9 93.2162 -80.1924 100.319 8.49994 107.18C43.4448 109.887 79.5721 112.682 114.325 115.04C138.065 116.651 161.864 118.931 187.038 121.347C279.411 130.197 374.918 139.338 459.486 113.196C488.355 104.269 511.149 91.6151 532.879 79.0682C518.26 85.8026 502.827 91.7704 486.02 96.1564C432.213 110.178 376.174 117.737 314.74 119.261C264.067 120.513 209.994 117.864 139.41 110.683C0.724609 96.5543 -115.669 89.6453 -226.89 88.9369C-238.878 88.8593 -251.354 89.8879 -264.259 91.6248C-263.682 91.6248 -263.121 91.6248 -262.544 91.6248L-262.529 91.6151ZM686.524 31.588C696.605 31.588 706.642 32.0441 716.842 32.9756C733.398 34.47 750.013 37.1676 767.618 41.2044C800.42 48.7344 830.9 59.5735 863.184 71.053C873.103 74.5754 883.362 78.224 893.621 81.7465C947.309 100.145 997.982 112.371 1048.55 119.115C1075.37 122.686 1102.55 124.724 1129.36 125.151C1157.13 125.597 1185.51 124.346 1213.71 121.425C1261.25 116.505 1306.1 106.986 1354.88 91.4405C1398.25 77.6224 1438.89 60.9126 1481.92 43.2325C1490.7 39.6227 1499.77 35.8964 1508.84 32.209C1603.29 -6.23707 1698.31 10.8415 1798.92 28.9195C1808.9 30.7147 1819.2 32.5681 1829.43 34.3438C1817.41 23.2525 1804.08 14.0146 1789.78 6.86294C1776.15 0.0412331 1761.21 -5.09199 1745.39 -8.38154C1716.41 -14.4172 1684.12 -14.6404 1646.72 -9.06082C1615.87 -4.46126 1581.28 4.22352 1540.96 17.4691C1505.33 29.1717 1469.81 42.8831 1435.47 56.1384C1376.88 78.7577 1321.52 100.116 1276.34 107.228C1224.86 115.341 1172.35 118.504 1120.27 116.641C1066.79 114.72 1015.25 107.539 967.058 95.2734C932.424 86.4625 900.805 71.577 870.206 57.1864C848.121 46.7937 825.298 36.0517 801.676 27.7841C775.216 18.5171 750.456 13.3838 725.992 12.0738C710.988 11.2684 696.783 11.9574 682.592 14.1601C669.924 16.13 657.521 19.2837 644.691 23.8056C625.178 30.6758 607.528 39.6518 589.553 49.3846C590.352 49.0547 591.15 48.7247 591.963 48.4045C614.343 39.4189 636.501 34.3632 661.72 32.5195C670.057 31.9082 678.305 31.5977 686.524 31.5977V31.588Z" fill="white" fill-opacity="0.4"/>
<path d="M-515.953 100.319C-467.143 133.05 -397.918 118.281 -330.97 103.987C-308.96 99.2907 -287.674 94.7494 -267.407 91.8577C-295.434 92.4496 -324.836 98.0099 -353.365 103.395C-381.259 108.665 -410.099 114.118 -437.741 114.991C-452.627 115.457 -465.96 114.603 -478.51 112.362C-492.021 109.945 -504.29 106.006 -515.953 100.319ZM585.503 51.3253C568.548 58.7001 553.544 67.385 537.742 76.5259C537.639 76.5841 537.55 76.6423 537.447 76.7005C551.238 70.1311 564.32 62.9406 577.21 55.8666C579.989 54.3432 582.754 52.8294 585.488 51.3253H585.503Z" fill="white" fill-opacity="0.4"/>
<path d="M-401.141 158.939C-407.778 158.939 -414.356 158.774 -420.846 158.425C-465.931 155.98 -498.984 144.335 -521.896 122.851L-522.384 122.385L-521.689 122.715C-506.685 129.751 -491.46 134.534 -475.155 137.339C-460.61 139.842 -445.502 140.706 -428.976 139.969C-398.244 138.61 -366.906 131.74 -336.618 125.112C-309.182 119.106 -280.815 112.895 -252.315 110.528C-178.76 104.443 -101.08 111.973 -25.9428 119.261C12.1949 122.958 51.6334 126.781 89.3277 128.654C103.711 129.362 117.532 129.983 130.851 130.507C136.483 130.362 142.1 130.216 147.687 130.071C161.908 129.692 176.394 129.333 190.407 128.974C279.736 126.733 371.813 124.433 461.644 116.505C490.173 110.751 517.949 102.6 545.044 94.6523C569.183 87.5686 594.15 80.2423 619.102 74.7985C647.055 68.6949 672.126 65.6382 695.733 65.4344C744.159 65.0172 794.447 76.157 843.095 86.9281C875.024 93.9924 908.047 101.299 939.681 105.084C1064.96 120.037 1183.97 121.095 1293.4 108.228C1373.02 98.8637 1434.61 78.0395 1499.83 55.9927C1509.43 52.7517 1519.14 49.4621 1529.01 46.192C1536.02 43.2129 1543.26 40.2533 1550.79 37.3325C1565.18 31.7335 1580.04 27.9975 1595.18 25.756C1642.35 14.1601 1738.31 4.86388 1791.99 24.4557C1813.69 32.3739 1826.32 44.2512 1829.55 59.7675L1829.58 59.9324L1829.34 59.8742C1818.46 57.196 1807.52 54.3528 1795.93 51.3544C1731.82 34.7125 1660.76 16.2657 1595.21 25.9597C1592.13 26.7166 1589.22 27.5026 1586.5 28.2983C1566.63 34.1206 1547.62 40.2339 1529.15 46.3764C1509.41 54.7506 1491.48 63.2705 1473.98 71.5768C1447.19 84.2887 1421.9 96.3019 1393.06 106.481C1360.67 117.902 1328.49 125.355 1291.79 129.906C1242.79 136 1191.55 138.95 1139.51 138.659C1086.9 138.377 1035.82 134.806 987.708 128.043C954.345 123.356 920.656 115.962 888.092 108.82C834.3 97.02 778.675 84.8127 721.897 84.0849C673.471 83.4736 625.207 92.0905 578.526 100.426C549.301 105.647 519.087 111.042 489.197 114.098C480.062 115.03 470.912 115.903 461.718 116.709C451.858 118.698 441.91 120.396 431.873 121.706C379.899 128.479 324.023 132.128 261.081 132.856C221.612 133.312 179.498 132.623 130.851 130.711C111.885 131.196 92.8163 131.653 74.2205 132.089C-30.9539 134.593 -139.72 137.193 -245.457 145.286C-262.012 146.557 -279.707 148.634 -298.435 150.827C-332.493 154.825 -367.527 158.939 -401.126 158.939H-401.141ZM-521.172 123.201C-498.333 144.345 -465.502 155.805 -420.831 158.231C-381.422 160.375 -339.264 155.417 -298.495 150.633C-279.766 148.43 -262.072 146.354 -245.501 145.092C-139.735 136.999 -30.9835 134.399 74.2057 131.895C91.8259 131.478 109.875 131.041 127.865 130.585C115.462 130.09 102.617 129.508 89.2982 128.848C51.5891 126.985 12.1506 123.162 -25.9872 119.455C-101.095 112.167 -178.76 104.637 -252.271 110.722C-280.741 113.08 -309.093 119.29 -336.514 125.297C-366.832 131.934 -398.185 138.804 -428.946 140.163C-445.502 140.9 -460.639 140.036 -475.214 137.523C-491.297 134.758 -506.33 130.071 -521.142 123.201H-521.172ZM716.93 83.8618C718.571 83.8618 720.226 83.8714 721.867 83.8908C778.675 84.6089 834.329 96.8259 888.151 108.635C920.716 115.777 954.389 123.171 987.738 127.858C1035.84 134.612 1086.9 138.183 1139.48 138.464C1191.51 138.746 1242.73 135.796 1291.72 129.712C1328.39 125.151 1360.54 117.718 1392.9 106.306C1421.72 96.1369 1447.02 84.1335 1473.79 71.4216C1490.61 63.4355 1507.83 55.2552 1526.66 47.2011C1517.64 50.2093 1508.75 53.2174 1499.95 56.1868C1434.72 78.2433 1373.09 99.0674 1293.45 108.441C1183.97 121.318 1064.93 120.26 939.622 105.297C907.959 101.513 874.936 94.2059 842.991 87.1416C795.231 76.5743 745.888 65.6479 698.305 65.6479C697.447 65.6479 696.59 65.6479 695.733 65.6576C672.155 65.8517 647.114 68.9181 619.191 75.012C594.268 80.4558 569.302 87.7723 545.162 94.856C518.599 102.648 491.356 110.634 463.418 116.369C472.021 115.603 480.594 114.787 489.138 113.914C519.013 110.857 549.213 105.472 578.437 100.251C623.537 92.1973 670.13 83.8715 716.945 83.8715L716.93 83.8618ZM133.837 130.624C181.213 132.448 222.396 133.098 261.051 132.652C323.978 131.924 379.825 128.285 431.784 121.512C441.23 120.28 450.587 118.698 459.885 116.864C370.601 124.656 279.144 126.946 190.407 129.178C176.394 129.527 161.908 129.896 147.687 130.275C143.09 130.401 138.463 130.517 133.837 130.634V130.624ZM1633.42 23.0778C1687.79 23.0778 1744.17 37.7109 1796.02 51.17C1807.52 54.149 1818.39 56.9728 1829.19 59.6316C1825.93 44.2609 1813.35 32.4903 1791.81 24.6303C1759.72 12.9082 1715.3 12.3551 1683.69 13.9562C1653.21 15.4991 1620.74 19.8755 1597.2 25.4745C1609.12 23.8249 1621.22 23.0875 1633.42 23.0875V23.0778ZM1593.11 26.2702C1578.72 28.5312 1564.61 32.1701 1550.9 37.4974C1544.24 40.0883 1537.78 42.7181 1531.53 45.3478C1549.2 39.4964 1567.4 33.6645 1586.37 28.1043C1588.47 27.4929 1590.73 26.8719 1593.11 26.2606V26.2702Z" fill="white" fill-opacity="0.4"/>
<path d="M-405.28 169.749C-413.425 169.749 -421.511 169.545 -429.508 169.06C-468.784 166.702 -499.486 157.94 -523.374 142.268L-524.202 141.725L-523.196 142.123C-465.354 164.645 -396.618 154.272 -330.143 144.238C-294.119 138.804 -260.09 133.661 -227.629 133.38C-163.179 132.817 -97.4138 136.31 -33.8361 139.697C29.7711 143.083 95.5513 146.586 160.297 146.043C272.655 145.112 370.971 139.318 460.861 128.324C490.233 124.734 519.146 118.446 547.099 112.362C578.954 105.433 611.904 98.2621 645.459 95.1278C706.08 89.4608 769.761 100.436 831.329 111.052C867.471 117.281 904.855 123.725 940.672 126.558C1064.15 136.32 1194.11 134.719 1326.91 121.813C1372.43 117.388 1413.56 110.44 1456.36 99.9505C1494.91 90.4991 1531.27 79.0294 1569.77 66.89C1588.69 60.9222 1608.27 54.7507 1629.26 48.4336C1647.08 43.0771 1680.43 39.2733 1712.25 38.9627C1751.72 38.5746 1783.32 43.4652 1801.28 52.7226C1816.55 60.602 1822.26 71.5381 1818.22 85.23L1818.18 85.3659L1818 85.2979C1786.01 73.5467 1753.46 66.5116 1718.49 63.7848C1687.34 61.3589 1655 62.4457 1619.6 67.0938C1553.83 75.7301 1487.4 95.6906 1423.16 114.991C1367.67 131.662 1310.3 148.896 1253.98 158.6C1224.56 163.665 1195.69 166.402 1165.71 166.955C1138.97 167.45 1111.94 166.188 1083.05 163.092C1029.35 157.338 976.888 145.888 926.17 134.816C854.551 119.183 780.508 103.017 698.748 101.464C649.332 100.523 597.595 110.993 547.543 121.124C513.603 127.994 478.525 135.088 444.792 138.455C329.138 150.002 209.166 152.341 93.1418 154.592L82.6614 154.796C42.6611 155.572 2.02515 155.854 -37.2804 156.125C-118.212 156.678 -201.893 157.251 -284.037 162.248C-296.735 163.025 -309.64 164.092 -323.313 165.218C-350.394 167.459 -378.17 169.759 -405.295 169.759L-405.28 169.749ZM-522.324 142.676C-498.614 157.979 -468.222 166.547 -429.478 168.876C-394.918 170.943 -358.524 167.935 -323.328 165.024C-309.67 163.898 -296.75 162.821 -284.052 162.054C-201.893 157.057 -118.197 156.484 -37.2656 155.931C2.03998 155.659 42.6758 155.388 82.6761 154.602L93.1566 154.398C209.166 152.147 329.138 149.808 444.763 138.261C478.466 134.894 513.544 127.8 547.469 120.93C597.536 110.799 649.317 100.319 698.763 101.27C780.552 102.833 854.625 118.999 926.259 134.632C976.976 145.704 1029.42 157.144 1083.1 162.898C1111.97 165.994 1138.99 167.255 1165.7 166.761C1195.65 166.207 1224.5 163.471 1253.89 158.415C1310.18 148.721 1367.55 131.488 1423.03 114.817C1487.28 95.5062 1553.74 75.5457 1619.54 66.8997C1654.97 62.2419 1687.36 61.1648 1718.53 63.581C1753.48 66.2981 1786 73.3235 1817.97 85.0456C1821.9 71.4895 1816.23 60.6602 1801.11 52.8584C1783.21 43.6302 1751.66 38.7492 1712.27 39.1374C1680.47 39.4479 1647.18 43.2518 1629.4 48.5985C1608.41 54.9059 1588.84 61.0872 1569.91 67.055C1492.87 91.353 1426.35 112.332 1326.97 121.997C1194.12 134.903 1064.15 136.504 940.642 126.742C904.81 123.909 867.427 117.466 831.27 111.236C769.732 100.63 706.095 89.6549 645.518 95.3122C611.992 98.4464 579.058 105.608 547.203 112.536C519.235 118.62 490.306 124.918 460.92 128.509C371.015 139.503 272.67 145.296 160.297 146.227C95.5365 146.771 29.7563 143.268 -33.8657 139.881C-97.4434 136.495 -163.179 133.001 -227.629 133.564C-260.061 133.846 -294.074 138.979 -330.069 144.423C-367.29 150.041 -405.25 155.766 -441.599 155.776C-469.833 155.776 -497.091 152.321 -522.324 142.686V142.676Z" fill="white" fill-opacity="0.4"/>
<path d="M1098.31 184.654C1090.98 184.654 1083.67 184.557 1076.4 184.363C1033.25 183.228 989.91 178.657 947.589 170.788C916.65 165.033 885.046 156.222 854.492 147.702C829.067 140.609 803.213 133.409 777.019 127.703C762.488 125.908 747.854 124.53 733.087 123.744C705.622 122.279 677.196 123.54 646.213 127.596C618.496 131.226 591.016 136.757 564.438 142.103C534.844 148.061 504.246 154.214 472.05 158.105C423.048 164.024 372.035 166.101 320.933 166.751C247.097 172.059 167.54 174.456 76.2013 174.223C27.923 174.097 -21.6116 172.03 -69.5351 170.031C-135.197 167.294 -203.106 164.461 -269.004 166.557C-292.197 167.294 -316.41 170.215 -342.043 173.311C-406.891 181.141 -473.943 189.244 -526.316 160.705L-526.981 160.346L-526.183 160.54C-461.777 176.047 -387.128 170.875 -314.947 165.877C-278.524 163.355 -244.111 160.967 -211.059 161.094C-149.24 161.317 -86.4163 162.578 -25.6472 163.801C41.3452 165.15 110.599 166.537 178.789 166.537C180.237 166.537 181.686 166.537 183.149 166.537C198.153 166.537 213.586 166.605 228.531 166.673C259.07 166.809 289.994 166.945 320.889 166.557C347.009 164.674 372.419 162.433 397.371 159.813C434.046 155.96 472.494 148.168 513.203 139.92C572.834 127.829 634.52 115.331 689.982 116.33C719.399 116.864 748.445 121.299 777.078 127.519C814.388 132.138 850.9 139.513 886.525 146.703C946.052 158.726 1007.62 171.166 1072.17 170.564C1132.03 170.011 1192.37 160.841 1250.71 151.972C1281.65 147.276 1313.62 142.414 1344.9 138.95C1452.18 127.082 1536.77 106.753 1634.72 83.2214C1639.15 82.1539 1643.63 81.0768 1648.14 79.9997C1664.05 76.1862 1692.72 71.0335 1721.21 69.083C1737.01 68.0059 1750.89 68.0351 1762.48 69.1801C1776.08 70.5192 1786.52 73.4012 1793.51 77.7485C1804.96 84.871 1807.28 95.9915 1800.4 110.78L1800.35 110.877L1800.2 110.848C1741.67 98.3203 1699.27 93.3811 1658.41 94.3321C1617.2 95.2928 1575.72 102.26 1519.74 117.64C1425.72 143.472 1317.38 164.325 1206.44 177.939C1170.09 182.403 1133.8 184.644 1098.26 184.644L1098.31 184.654ZM779.192 127.975C804.691 133.603 829.85 140.619 854.61 147.518C885.165 156.038 916.754 164.849 947.678 170.594C989.969 178.463 1033.3 183.024 1076.41 184.169C1118.85 185.285 1162.59 183.131 1206.42 177.755C1317.33 164.141 1425.66 143.297 1519.67 117.466C1575.68 102.076 1617.19 95.0987 1658.44 94.138C1699.29 93.1871 1741.7 98.1165 1800.19 110.634C1806.99 95.9623 1804.68 84.9486 1793.35 77.894C1786.4 73.5759 1776.02 70.7133 1762.48 69.3742C1750.91 68.2292 1737.05 68.2 1721.28 69.2771C1692.81 71.2276 1664.16 76.3705 1648.29 80.1841C1643.78 81.2612 1639.32 82.3383 1634.87 83.4057C1536.89 106.947 1452.29 127.276 1344.99 139.144C1313.73 142.608 1281.74 147.46 1250.81 152.166C1192.45 161.035 1132.1 170.205 1072.22 170.758C1070.71 170.768 1069.2 170.778 1067.71 170.778C1004.74 170.778 944.648 158.639 886.48 146.887C851.55 139.833 815.763 132.603 779.222 127.975H779.192ZM-525.473 160.919C-473.307 188.972 -406.625 180.909 -342.102 173.116C-316.455 170.021 -292.242 167.091 -269.019 166.353C-203.106 164.267 -135.197 167.09 -69.5204 169.827C-21.6117 171.826 27.923 173.883 76.2013 174.019C166.195 174.262 244.732 171.933 317.637 166.78C287.821 167.12 258.021 166.993 228.56 166.858C212.891 166.79 196.705 166.712 181.021 166.722C180.282 166.722 179.557 166.722 178.818 166.722C110.614 166.722 41.3599 165.324 -25.6324 163.985C-86.3867 162.763 -149.225 161.501 -211.029 161.278C-244.082 161.161 -278.465 163.539 -314.888 166.062C-386.803 171.04 -461.156 176.183 -525.444 160.909L-525.473 160.919ZM683.685 116.466C629.908 116.466 570.676 128.479 513.307 140.104C472.582 148.362 434.119 156.154 397.43 160.007C373.513 162.52 349.167 164.684 324.185 166.508C374.178 165.819 424.038 163.694 471.976 157.911C504.157 154.029 534.756 147.867 564.335 141.919C590.913 136.572 618.407 131.041 646.139 127.402C677.151 123.336 705.607 122.075 733.102 123.55C747.145 124.297 761.084 125.588 774.905 127.257C746.982 121.27 718.645 117.039 689.982 116.524C687.898 116.486 685.799 116.466 683.685 116.466Z" fill="white" fill-opacity="0.4"/>
<path d="M-355.435 214.338C-396.795 214.338 -431.045 212.057 -457.431 207.536C-474.046 204.692 -487.941 200.889 -498.717 196.25C-510.262 191.272 -518.57 185.178 -523.403 178.143L-523.566 177.91L-523.211 178.017C-495.096 186.585 -460.993 191.194 -418.924 192.107C-381.702 192.922 -342.855 190.826 -305.294 188.798C-272.581 187.032 -241.701 185.372 -212.862 185.586C-123.268 186.255 -29.564 186.042 78.5077 184.897C94.3541 184.208 110.067 183.538 125.589 182.869C259.233 177.163 386.817 171.719 517.727 156.649C520.092 156.232 522.443 155.824 524.793 155.407C591.135 143.743 659.739 131.691 728.579 140.764C767.943 145.956 802.371 157.202 835.66 168.09C875.779 181.209 917.272 194.765 967.708 197.803C1012.41 200.491 1057.63 199.346 1110 194.193C1156.27 189.642 1200.95 182.684 1248.24 175.329C1264.89 172.738 1282.11 170.06 1299.27 167.517C1309.9 165.945 1329.28 162.433 1353.82 157.998C1473.02 136.436 1721.06 91.5569 1774.47 120.474C1782.02 124.559 1785.44 130.042 1784.65 136.776V136.863H1784.51C1583.78 138.571 1402.89 164.81 1211.38 192.592C1193.58 195.173 1175.17 197.842 1156.9 200.471C1112.78 206.817 1066.48 208.574 1019.3 205.711C975.779 203.062 931.625 196.677 884.293 186.207C859.341 180.685 836.059 174.291 813.531 168.119C780.035 158.93 748.401 150.255 714.891 145.315C677.285 139.775 642.724 139.736 606.094 145.209C576.412 149.643 547.025 153.486 517.786 156.853C504.438 159.192 490.824 161.55 477.491 163.646C426.596 171.661 370.867 177.076 307.098 180.181C250.068 182.956 191.398 183.713 134.665 184.441L132.418 184.47C114.044 184.703 96.0836 184.916 78.5077 185.101C50.1409 186.343 21.3455 187.653 -7.55347 189.099C-23.2816 189.885 -49.5789 192.553 -82.8829 195.92C-154.886 203.208 -253.498 213.193 -340.963 214.25C-345.885 214.309 -350.719 214.338 -355.449 214.338H-355.435ZM-522.96 178.298C-518.111 185.207 -509.907 191.185 -498.54 196.085C-487.793 200.724 -473.928 204.508 -457.342 207.351C-427.97 212.387 -388.813 214.639 -340.933 214.056C-253.483 212.989 -154.886 203.014 -82.8829 195.726C-49.5789 192.359 -23.2668 189.69 -7.52393 188.904C19.3942 187.546 46.2385 186.323 72.7279 185.159C-32.9047 186.246 -124.849 186.449 -212.832 185.79C-241.642 185.576 -272.537 187.235 -305.235 189.001C-342.811 191.03 -381.658 193.116 -418.894 192.31C-460.816 191.398 -494.859 186.818 -522.93 178.308L-522.96 178.298ZM659.812 140.929C677.876 140.929 696.043 142.327 714.994 145.121C748.52 150.07 780.168 158.745 813.679 167.935C836.207 174.116 859.489 180.501 884.426 186.022C982.904 207.827 1072.03 212.494 1156.87 200.287C1175.15 197.657 1193.55 194.989 1211.35 192.407C1402.83 164.635 1583.71 138.397 1784.4 136.669C1785.14 130.042 1781.76 124.637 1774.32 120.619C1721.03 91.7801 1473.08 136.631 1353.93 158.182C1329.4 162.627 1310 166.13 1299.37 167.702C1282.23 170.244 1265.01 172.922 1248.36 175.513C1201.06 182.878 1156.37 189.826 1110.09 194.387C1057.69 199.54 1012.45 200.685 967.723 197.997C917.227 194.96 875.719 181.384 835.571 168.255C802.297 157.377 767.884 146.13 728.564 140.949C659.783 131.885 591.224 143.937 524.911 155.592C523.655 155.815 522.384 156.038 521.127 156.261C549.257 152.991 577.55 149.274 606.08 145.015C624.291 142.298 642 140.929 659.827 140.929H659.812ZM514.505 157.222C384.733 172.001 258.154 177.406 125.633 183.063C112.033 183.645 98.3009 184.227 84.4501 184.829C100.134 184.654 116.113 184.47 132.447 184.256L134.694 184.227C191.428 183.499 250.098 182.752 307.112 179.967C370.867 176.862 426.581 171.457 477.461 163.442C489.715 161.511 502.206 159.366 514.505 157.212V157.222Z" fill="white" fill-opacity="0.4"/>
<path d="M1067.66 241.285C1021.12 241.285 973.37 236.831 925.742 227.942C887.397 220.781 850.841 208.137 815.497 195.91C796.473 189.331 777.182 182.655 757.448 176.794C749.88 174.931 742.237 173.097 734.536 171.321C696.088 162.433 658.083 159.192 614.904 161.103C576.338 162.821 538.26 168.449 497.949 174.407C484.852 176.348 471.297 178.347 457.535 180.239C369.744 192.32 279.869 194.688 192.95 196.978C180.799 197.298 168.338 197.628 155.892 197.977C128.56 199.666 101.124 201.606 73.9547 204.042C48.2192 206.352 18.6994 209.602 -12.5499 213.057C-92.3435 221.868 -191.649 232.823 -283.505 233.638C-333.823 234.085 -376.706 231.581 -414.622 225.972C-435.494 222.887 -454.874 218.801 -472.213 213.823C-490.632 208.545 -507.35 202.101 -521.896 194.678L-522.369 194.435L-521.777 194.503C-431.814 205.245 -338.701 208.777 -244.865 208.777C-151.028 208.777 -59.8821 205.362 31.4268 202.014C67.495 200.685 104.805 199.316 140.873 198.22C145.855 198.065 150.851 197.919 155.847 197.783C184.214 196.037 212.492 194.562 240.283 193.116C284.791 190.806 330.808 188.409 375.967 184.926C408.429 182.422 441.807 177.677 477.136 172.641C545.562 162.898 616.309 152.826 680.67 160.113C707.159 163.112 732.688 169.216 757.537 176.6C771.565 180.055 785.357 183.587 798.823 187.051C860.109 202.8 917.996 217.666 986.437 221.548C1083.64 227.069 1166.72 209.99 1254.67 191.903C1266.96 189.38 1279.67 186.76 1292.4 184.217C1342.98 174.096 1395.78 169.332 1446.84 164.713C1491.29 160.696 1537.23 156.542 1581.62 148.886C1591.54 147.178 1603.14 144.568 1615.44 141.812C1656.94 132.506 1708.57 120.92 1741.95 133.001C1749.21 135.631 1755.39 139.318 1760.34 143.986C1765.64 148.983 1769.68 155.262 1772.37 162.636L1772.43 162.792L1772.19 162.753C1680.56 147.256 1584.67 156.746 1491.94 165.926C1477.81 167.323 1463.2 168.769 1448.97 170.089C1391.2 175.436 1345.67 188.807 1297.47 202.965C1267.13 211.873 1235.77 221.092 1200.75 228.263C1158.38 236.938 1113.58 241.275 1067.63 241.275L1067.66 241.285ZM761.439 177.764C779.828 183.344 797.862 189.584 815.645 195.726C850.989 207.953 887.53 220.587 925.831 227.748C1020.42 245.419 1115.47 245.535 1200.7 228.088C1235.69 220.927 1267.06 211.708 1297.38 202.8C1345.6 188.633 1391.14 175.251 1448.95 169.904C1463.19 168.585 1477.79 167.139 1491.92 165.742C1584.61 156.572 1680.44 147.081 1772.06 162.53C1769.38 155.242 1765.38 149.041 1760.13 144.102C1755.21 139.464 1749.06 135.796 1741.84 133.176C1708.59 121.134 1657.01 132.71 1615.58 141.997C1603.28 144.752 1591.67 147.363 1581.74 149.071C1537.33 156.737 1491.38 160.89 1446.93 164.907C1395.87 169.516 1343.08 174.291 1292.53 184.402C1279.8 186.944 1267.09 189.564 1254.81 192.087C1178.29 207.817 1105.45 222.79 1023.78 222.79C1011.55 222.79 999.135 222.45 986.452 221.732C917.966 217.841 860.065 202.965 798.749 187.216C786.539 184.082 774.093 180.879 761.439 177.745V177.764ZM-521.216 194.765C-506.803 202.082 -490.277 208.428 -472.08 213.639C-454.741 218.607 -435.391 222.693 -414.533 225.769C-376.647 231.377 -333.779 233.881 -283.49 233.435C-191.649 232.62 -92.3583 221.654 -12.5794 212.853C18.6699 209.408 48.1896 206.148 73.9252 203.838C99.1877 201.577 124.672 199.734 150.082 198.133C147.023 198.22 143.963 198.317 140.918 198.404C104.835 199.501 67.5393 200.879 31.4711 202.198C-152.64 208.962 -343.018 215.958 -521.201 194.756L-521.216 194.765ZM633.589 157.823C582.694 157.823 529.287 165.421 477.224 172.835C441.88 177.862 408.503 182.616 376.026 185.12C330.852 188.603 284.836 190.991 240.327 193.31C214.458 194.659 188.191 196.017 161.805 197.618C172.285 197.327 182.721 197.055 192.95 196.784C279.854 194.494 369.714 192.116 457.475 180.045C471.238 178.153 484.778 176.154 497.89 174.213C538.215 168.255 576.294 162.627 614.89 160.909C658.113 158.988 696.161 162.239 734.639 171.137C740.877 172.583 747.086 174.058 753.235 175.552C729.732 168.73 705.607 163.141 680.655 160.317C665.297 158.58 649.568 157.833 633.604 157.833L633.589 157.823Z" fill="white" fill-opacity="0.4"/>
<path d="M1015.45 277.732C1012.99 277.732 1010.53 277.722 1008.05 277.703C959.401 277.295 911.802 272.87 866.584 264.545C821.115 256.18 784.47 241.382 749.037 227.079C723.449 216.744 696.99 206.06 666.997 197.618C651.15 193.155 635.141 190.166 618.068 188.487C602.828 186.983 587.055 186.566 569.849 187.196C537.831 188.38 506.685 192.97 473.706 197.832C451.371 201.121 428.266 204.527 405.029 206.74C349.419 212.028 292.005 214.736 236.484 217.356C194.784 219.325 151.664 221.353 109.639 224.468C71.1021 227.321 31.8113 231.018 -6.19342 234.589C-92.0033 242.663 -180.74 250.998 -267.038 250.251C-313.498 249.844 -355.553 246.913 -395.597 241.285C-440.564 234.968 -481.866 225.439 -521.866 212.154L-522.501 211.941L-521.792 211.97C-323.077 219.646 -115.315 221.024 95.7585 216.065C207.792 213.435 299.943 208.021 385.724 199.035C411.962 196.289 440.595 190.855 470.913 185.091C506.123 178.405 542.517 171.496 577.417 168.468C616.959 165.043 648.741 167.265 674.595 175.261C708.12 185.634 731.565 197.832 754.255 209.641C788.993 227.719 821.809 244.788 885.357 251.532C934.7 256.762 987.768 257.412 1043.07 253.463C1091.77 249.979 1142.43 243.08 1197.92 232.367C1215.09 229.058 1240.59 222.993 1272.87 215.308C1376.02 190.767 1538.49 152.118 1649.1 152.118C1704.25 152.118 1746.5 161.715 1762.11 187.458L1762.2 187.594H1761.98C1732.1 187.255 1701.62 186.304 1672.16 185.392C1592.56 182.917 1510.24 180.355 1430.25 189.467C1373.15 195.969 1324.47 213.154 1277.39 229.776C1237.55 243.837 1196.37 258.383 1150.09 266.495C1107.55 273.957 1062.28 277.732 1015.45 277.732ZM585.001 186.721C596.516 186.721 607.454 187.245 618.142 188.293C635.23 189.981 651.269 192.97 667.145 197.434C697.152 205.886 723.612 216.57 749.215 226.904C784.632 241.207 821.262 255.996 866.688 264.351C911.891 272.667 959.46 277.082 1008.08 277.499C1057.51 277.916 1105.29 274.151 1150.03 266.301C1196.28 258.189 1237.45 243.653 1277.27 229.592C1324.37 212.96 1373.06 195.765 1430.22 189.263C1510.24 180.152 1592.58 182.713 1672.19 185.188C1701.59 186.1 1731.99 187.041 1761.79 187.381C1746.16 161.841 1704.05 152.292 1649.15 152.292C1538.61 152.292 1376.15 190.942 1273 215.473C1240.72 223.158 1215.2 229.223 1198.04 232.532C1142.54 243.255 1091.86 250.154 1043.13 253.628C987.797 257.577 934.7 256.927 885.328 251.697C821.706 244.953 788.86 227.855 754.078 209.767C731.402 197.968 707.973 185.78 674.476 175.416C648.682 167.44 616.945 165.218 577.477 168.633C542.591 171.651 506.197 178.56 471.016 185.246C440.698 191 412.05 196.444 385.797 199.19C300.002 208.176 207.851 213.591 95.8029 216.22C13.112 218.161 -69.1059 219.131 -150.452 219.131C-276.469 219.131 -400.431 216.802 -521.068 212.154C-481.289 225.322 -440.195 234.774 -395.509 241.052C-355.479 246.68 -313.439 249.611 -267.008 250.009C-180.74 250.765 -92.0033 242.42 -6.20819 234.347C31.7965 230.776 71.0872 227.079 109.624 224.226C151.65 221.111 194.769 219.083 236.484 217.113C292.005 214.493 349.419 211.786 405.014 206.507C428.237 204.294 451.341 200.898 473.677 197.609C506.67 192.747 537.831 188.157 569.879 186.973C575.052 186.779 580.093 186.682 585.015 186.682L585.001 186.721Z" fill="white" fill-opacity="0.4"/>
<path d="M953.65 300.71C932.66 300.71 911.654 300.002 890.871 298.566C846.835 295.529 805.046 289.347 766.657 280.187C725.903 270.454 689.613 257.5 658.822 241.683C648.933 236.608 641.29 230.659 633.899 224.905C621.231 215.046 609.258 205.721 587.72 201.868C557.476 196.454 512.672 203.013 473.144 208.797C456.943 211.165 441.644 213.406 428.813 214.59C316.307 224.963 202.825 234.386 91.501 242.585C-19.2315 250.736 -132.684 258.043 -245.678 264.292C-253.35 264.719 -261.332 265.195 -269.034 265.661C-313.986 268.358 -360.476 271.143 -404.718 267.388C-455.096 263.109 -493.913 250.756 -523.389 229.611L-523.655 229.427L-523.27 229.456C-433.174 235.763 -337.519 238.83 -231.147 238.83C-228.56 238.83 -225.974 238.83 -223.357 238.83C-117.843 238.684 -12.4761 235.54 76.6598 232.493C194.251 228.466 292.877 223.828 391.917 214.279C416.514 211.912 439.959 208.186 462.62 204.595C497.727 199.025 530.898 193.766 562.798 194.474C598.452 195.27 628.046 203.411 655.895 220.111C723.183 260.459 802.977 284.214 893.059 290.706C974.316 296.557 1063.19 288.425 1157.17 266.524C1191.09 258.616 1222.76 248.66 1253.37 239.024C1308.52 221.664 1360.62 205.274 1424.18 200.209C1432.03 199.588 1454.3 199.501 1488.61 199.957C1520.41 200.384 1559.42 201.238 1598.46 202.363C1670.83 204.459 1749.32 207.7 1752.58 210.514C1752.74 210.66 1752.72 210.786 1752.67 210.873L1752.64 210.932H1752.55C1703.85 213.067 1653.23 211.203 1604.27 209.408C1540.99 207.079 1475.55 204.673 1413.45 210.844C1353.02 216.851 1297.79 234.366 1244.4 251.309C1210.5 262.061 1175.46 273.181 1139.34 281.284C1082.22 294.102 1017.98 300.749 953.621 300.749L953.65 300.71ZM561.186 199.646C570.824 199.646 579.812 200.248 587.794 201.674C609.435 205.546 621.423 214.891 634.121 224.779C641.497 230.523 649.14 236.472 658.999 241.537C689.776 257.345 726.021 270.289 766.746 280.012C805.105 289.173 846.879 295.354 890.886 298.381C975.336 304.204 1063.54 298.052 1139.25 281.06C1175.35 272.958 1210.39 261.847 1244.28 251.095C1297.7 234.153 1352.94 216.628 1413.42 210.611C1475.53 204.44 1541 206.846 1604.3 209.175C1653.21 210.971 1703.8 212.834 1752.43 210.708C1752.43 210.679 1752.41 210.641 1752.35 210.602C1749.72 208.321 1689.31 205.148 1598.46 202.519C1526.9 200.452 1441.52 198.986 1424.22 200.364C1360.72 205.42 1308.64 221.81 1253.52 239.16C1222.89 248.796 1191.23 258.761 1157.29 266.67C1063.24 288.581 974.345 296.722 893.044 290.861C802.903 284.369 723.05 260.595 655.718 220.218C627.927 203.547 598.408 195.415 562.812 194.629C530.957 193.921 497.801 199.18 462.708 204.75C440.033 208.35 416.588 212.067 391.976 214.444C292.921 223.993 194.295 228.631 76.6893 232.658C-12.4613 235.705 -117.828 238.849 -223.342 238.995C-332.715 239.14 -430.69 236.093 -522.901 229.65C-493.499 250.639 -454.829 262.924 -404.674 267.184C-360.476 270.939 -314.001 268.154 -269.063 265.457C-261.362 264.991 -253.379 264.516 -245.708 264.089C-132.713 257.839 -19.2759 250.533 91.4566 242.381C202.766 234.182 316.247 224.769 428.754 214.386C441.57 213.202 456.869 210.961 473.056 208.593C502.206 204.323 534.209 199.637 561.172 199.637L561.186 199.646Z" fill="white" fill-opacity="0.4"/>
<path d="M976.015 327.609C946.481 327.609 915.793 326.115 884.293 323.126C836.68 318.614 789.688 310.967 744.632 300.39C700.537 290.046 659.605 277.014 626.257 262.73C601.674 252.202 580.122 244.662 560.388 239.684C541.038 234.803 522.176 232.086 502.753 231.368C465.31 229.98 426.995 235.657 367.571 245.021C320.091 252.502 271.295 257.49 218.405 260.275C188.619 261.837 157.547 262.75 121.627 263.06C82.8682 265.03 42.2175 266.165 -0.960938 266.486C-25.7357 268.465 -53.6294 271.124 -83.4892 273.977C-167.215 281.973 -262.101 291.026 -345.161 290.677C-390.587 290.473 -427.01 287.504 -456.515 281.594C-472.731 278.343 -486.833 274.142 -498.451 269.115C-510.765 263.778 -520.654 257.335 -527.823 249.97L-527.971 249.815H-527.69C-464.881 251.619 -401.318 254.433 -339.84 257.151C-260.638 260.654 -178.73 264.283 -98.1087 265.729C-64.2873 266.33 -31.9885 266.524 -1.00531 266.291C25.8389 264.147 49.032 262.817 67.0809 262.915C86.5785 263.031 104.613 263.012 121.582 262.866C129.313 262.478 136.971 262.051 144.554 261.595C202.499 258.101 261.302 248.184 318.184 238.597C380.091 228.166 444.098 217.375 506.227 215.104C533.293 214.115 555.599 216.822 576.412 223.624C595.037 229.708 610.337 238.384 626.538 247.563C640.684 255.579 655.333 263.875 673.574 271.328C703.582 283.583 741.631 293.132 786.687 299.711C828.402 305.805 874.226 309.114 922.889 309.551C1017.08 310.385 1110.27 300.041 1172.17 281.856C1193.62 275.558 1214.14 268.873 1233.98 262.42C1293.62 243.003 1349.97 224.653 1421.74 219.49C1441.89 218.045 1520.28 214.066 1594.53 214.056H1594.6C1637.05 214.056 1671.13 215.347 1695.89 217.909C1726.16 221.033 1742.45 226.07 1744.3 232.872L1744.33 232.988H1744.15C1701.06 233.231 1655.09 230.097 1610.65 227.069C1536.24 221.994 1459.3 216.754 1389.44 226.477C1331.86 234.492 1282.05 254.628 1233.86 274.103C1207.83 284.622 1180.92 295.5 1153.08 304.359C1117.14 315.79 1074.6 323.097 1026.64 326.095C1010.21 327.124 993.31 327.638 976.015 327.638V327.609ZM491.4 230.96C495.214 230.96 498.983 231.028 502.753 231.164C522.221 231.882 541.098 234.609 560.477 239.5C580.24 244.487 601.807 252.027 626.405 262.565C659.738 276.849 700.655 289.862 744.72 300.206C789.761 310.783 836.739 318.429 884.337 322.932C934.256 327.658 982.121 328.647 1026.61 325.872C1074.54 322.883 1117.04 315.577 1152.96 304.155C1180.79 295.305 1207.69 284.428 1233.71 273.909C1281.92 254.424 1331.75 234.279 1389.38 226.264C1459.29 216.541 1536.26 221.781 1610.68 226.856C1655.06 229.883 1700.94 233.008 1743.97 232.775C1741.99 226.118 1725.81 221.169 1695.84 218.083C1671.11 215.531 1637.04 214.231 1594.6 214.231H1594.53C1520.29 214.231 1441.92 218.21 1421.77 219.665C1350.05 224.828 1293.73 243.158 1234.11 262.575C1214.27 269.038 1193.76 275.714 1172.29 282.021C1112.69 299.527 1024.12 309.783 933.561 309.783C929.999 309.783 926.451 309.764 922.874 309.735C874.197 309.298 828.343 305.989 786.613 299.895C741.528 293.307 703.434 283.758 673.412 271.493C655.141 264.03 640.507 255.734 626.346 247.709C610.159 238.539 594.86 229.873 576.279 223.799C555.51 217.006 533.248 214.309 506.241 215.298C444.142 217.569 380.15 228.36 318.258 238.791C261.376 248.378 202.559 258.296 144.583 261.789C138.508 262.158 132.373 262.497 126.194 262.827C160.164 262.478 189.846 261.585 218.346 260.091C271.236 257.306 320.017 252.318 367.467 244.837C420.934 236.414 457.327 230.97 491.385 230.97L491.4 230.96ZM-527.424 250.018C-520.285 257.296 -510.484 263.662 -498.289 268.95C-486.714 273.967 -472.627 278.159 -456.441 281.41C-426.965 287.319 -390.572 290.289 -345.176 290.483C-262.13 290.852 -167.259 281.788 -83.5483 273.792C-54.7529 271.037 -27.7756 268.465 -3.65131 266.505C-33.8363 266.709 -65.2482 266.505 -98.1235 265.923C-178.76 264.477 -260.667 260.848 -339.869 257.345C-401.245 254.628 -464.719 251.814 -527.424 250.018ZM65.1001 263.109C47.9677 263.109 26.4598 264.331 1.72943 266.272C42.1879 265.942 80.3996 264.884 116.941 263.099C101.331 263.215 84.8046 263.215 67.0661 263.109C66.4157 263.109 65.7505 263.109 65.0853 263.109H65.1001Z" fill="white" fill-opacity="0.4"/>
<path d="M932.616 343.388C902.756 343.388 871.492 342.019 839.104 339.273C793.147 335.372 746.82 328.832 701.395 319.846C657.787 311.22 617.403 300.827 581.364 288.95C496.678 261.042 403.299 256.112 308.088 259.499C283.698 264.147 260.298 268.232 236.632 271.425C197.119 276.762 161.361 279.013 124.11 278.509C100.725 278.188 77.1478 278.014 53.5408 277.946C40.71 278.839 27.9678 279.634 15.2405 280.304C2.29138 280.983 -22.1877 283.292 -53.1709 286.223C-135.877 294.034 -267.688 306.475 -372.951 306.475C-459.338 306.475 -527.838 298.1 -536.707 271.9L-536.751 271.774H-536.545C-395.834 280.187 -250.999 279.227 -110.924 278.305C-56.8812 277.946 -1.53711 277.587 53.5261 277.761C82.5285 275.743 111.96 273.249 142.588 270.649C197.489 265.991 253.084 261.275 308.044 259.324C320.401 256.966 333.025 254.463 346.078 251.852C395.982 241.867 434.992 239.48 472.568 244.119C510.514 248.805 546.242 260.547 588.208 276.733C623.744 290.444 665.504 302.05 712.333 311.249C758.631 320.341 807.293 326.571 856.99 329.764C962.83 336.566 1061.49 328.648 1134.76 307.464C1153.36 302.089 1171.38 296.616 1188.8 291.327C1219.52 282.002 1248.82 273.104 1278.94 265.379C1283.17 264.108 1287.43 262.876 1291.7 261.682C1325.57 252.25 1357.51 246.622 1389.34 244.468C1390.46 244.39 1391.58 244.322 1392.71 244.245C1399.92 243.478 1407.15 242.809 1414.44 242.256C1421.78 241.693 1430.93 240.887 1441.53 239.956C1483.62 236.259 1547.22 230.669 1605.66 230.563C1637.79 230.495 1664.79 232.144 1685.9 235.443C1710.73 239.325 1728.17 245.623 1737.72 254.152L1737.9 254.307H1737.6C1689.03 254.56 1639.54 251.484 1591.69 248.505C1526.43 244.449 1458.98 240.247 1392.74 244.439C1361.31 247.796 1330.39 253.201 1296.98 261.129C1290.96 262.556 1284.99 264.04 1279.05 265.564C1253.3 273.307 1228.27 282.448 1203.97 291.337C1172.96 302.671 1140.88 314.403 1106.38 323.65C1057.49 336.76 998.484 343.407 932.616 343.407V343.388ZM358.184 258.364C435.968 258.364 511.667 265.758 581.497 288.775C617.004 300.478 658.497 311.162 701.483 319.662C746.894 328.648 793.206 335.178 839.134 339.079C942.889 347.89 1035.26 342.485 1106.26 323.446C1140.75 314.199 1172.81 302.477 1203.82 291.143C1226.69 282.778 1250.19 274.19 1274.33 266.757C1245.86 274.2 1218.03 282.642 1188.91 291.482C1171.48 296.771 1153.46 302.244 1134.86 307.62C1061.54 328.822 962.845 336.75 856.946 329.938C807.234 326.746 758.542 320.506 712.23 311.414C665.385 302.215 623.596 290.59 588.046 276.878C546.109 260.693 510.41 248.961 472.509 244.284C434.977 239.655 396.012 242.032 346.152 252.008C333.528 254.531 321.303 256.957 309.33 259.247C325.679 258.674 341.983 258.354 358.184 258.354V258.364ZM-536.367 271.968C-533.972 278.877 -527.187 284.816 -516.219 289.639C-505.916 294.161 -491.651 297.799 -473.824 300.468C-442.383 305.174 -398.643 307.018 -343.816 305.96C-244.2 304.039 -129.269 293.19 -53.2153 286C-22.2173 283.069 2.26184 280.76 15.2257 280.081C27.0514 279.459 38.9066 278.722 50.8357 277.907C-3.34058 277.752 -57.7533 278.111 -110.924 278.46C-250.94 279.382 -395.716 280.343 -536.382 271.959L-536.367 271.968ZM56.2016 277.742C78.9365 277.82 101.597 277.994 124.125 278.305C161.346 278.809 197.075 276.558 236.572 271.231C259.839 268.087 282.84 264.099 306.787 259.538C252.241 261.517 197.104 266.195 142.632 270.814C112.935 273.336 84.3467 275.762 56.2016 277.742ZM1388.24 244.711C1356.82 246.923 1325.26 252.522 1291.82 261.828C1289.19 262.556 1286.57 263.313 1283.96 264.069C1288.24 262.992 1292.56 261.935 1296.89 260.906C1328.73 253.357 1358.32 248.087 1388.24 244.701V244.711ZM1451.33 242.479C1498.43 242.479 1545.61 245.419 1591.72 248.282C1639.46 251.251 1688.84 254.317 1737.31 254.084C1727.76 245.671 1710.43 239.451 1685.82 235.608C1664.74 232.309 1637.78 230.669 1605.66 230.737C1547.25 230.844 1483.66 236.433 1441.58 240.13C1430.98 241.062 1421.83 241.867 1414.48 242.43C1408.7 242.877 1402.97 243.381 1397.26 243.954C1415.22 242.915 1433.28 242.488 1451.35 242.488L1451.33 242.479Z" fill="white" fill-opacity="0.4"/>
<path d="M998.263 359.253C962.342 359.253 925.239 355.682 884.751 350.151C840.242 344.066 794.595 340.835 750.397 337.749C714.329 337.012 678.571 335.061 645.503 329.103C635.599 328.026 625.71 326.852 615.91 325.532C586.464 321.583 558.333 316.469 531.134 311.52C472.065 300.778 416.278 290.638 350.645 292.22C317.534 293.015 286.61 294.597 256.705 296.13C194.177 299.323 135.108 302.35 65.4846 297.857C-29.6232 291.725 -117.31 300.332 -210.142 309.463C-224.717 310.899 -239.78 312.374 -254.798 313.791C-263.18 314.577 -272.049 315.479 -281.451 316.44C-322.796 320.661 -374.252 325.911 -421.969 324.63C-448.133 323.931 -470.351 321.418 -489.892 316.954C-512.066 311.889 -530.514 304.204 -544.719 294.102L-545 293.908L-544.601 293.947C-481.881 299.313 -417.475 301.137 -352.73 301.137C-283.771 301.137 -214.429 299.08 -146.269 297.052C-59.8673 294.49 29.4607 291.831 115.285 293.5C164.554 294.461 207.939 288.969 253.867 283.147C281.805 279.605 310.704 275.946 340.919 273.909C379.692 271.298 415.346 273.2 453.144 279.906C486.862 285.893 518.171 294.956 551.312 304.563C575.215 311.491 599.93 318.652 627.07 325.086C633.116 326.522 639.28 327.793 645.533 328.919C679.931 332.635 714.728 335.071 748.638 337.439C749.214 337.478 749.806 337.516 750.382 337.565C766.11 337.885 781.883 337.973 797.522 338.06C830.412 338.244 864.426 338.438 895.572 340.874C951.403 345.25 991.359 345.842 1029.16 342.853C1071.61 339.506 1112.04 331.326 1156.39 317.119C1208.7 300.361 1255.8 287.795 1300.36 278.712C1352 268.184 1401.86 261.895 1452.83 259.479C1460.63 259.111 1471.63 258.344 1484.37 257.461C1521.49 254.88 1577.59 250.989 1627.03 251.881C1654.17 252.376 1676.61 254.278 1693.71 257.539C1713.8 261.371 1727.23 267.184 1733.58 274.84L1733.7 274.976H1733.46C1682.3 276.306 1630.3 274.239 1580.01 272.24C1530.43 270.27 1479.15 268.232 1428.79 269.445C1326.88 271.91 1253.5 297.392 1168.55 326.901C1160.54 329.686 1152.25 332.568 1143.91 335.43C1093.81 352.654 1047.12 359.253 998.233 359.253H998.263ZM754.24 337.817C797.256 340.825 841.558 344.047 884.81 349.957C980.317 363.018 1056.96 365.104 1143.81 335.246C1152.14 332.374 1160.44 329.501 1168.45 326.716C1253.45 297.198 1326.85 271.706 1428.82 269.231C1479.2 268.009 1530.48 270.047 1580.07 272.026C1630.27 274.025 1682.18 276.082 1733.26 274.772C1726.89 267.233 1713.57 261.488 1693.67 257.703C1676.58 254.453 1654.17 252.551 1627.06 252.056C1577.65 251.163 1521.56 255.054 1484.44 257.636C1471.7 258.519 1460.7 259.285 1452.9 259.654C1401.96 262.06 1352.12 268.348 1300.51 278.877C1255.96 287.96 1208.88 300.526 1156.56 317.275C1112.19 331.49 1071.73 339.68 1029.23 343.028C991.404 346.017 951.433 345.425 895.572 341.049C864.441 338.613 830.442 338.419 797.552 338.235C783.183 338.157 768.697 338.07 754.24 337.808V337.817ZM648.415 329.404C679.413 334.761 712.732 336.682 746.376 337.458C714.136 335.207 681.113 332.868 648.415 329.404ZM364.26 291.861C424.127 291.861 476.249 301.341 531.223 311.336C558.422 316.285 586.552 321.399 615.984 325.338C624.912 326.532 633.885 327.619 642.887 328.608C637.521 327.599 632.229 326.483 627.026 325.251C599.871 318.808 575.156 311.646 551.238 304.718C518.111 295.121 486.818 286.048 453.115 280.071C415.361 273.375 379.737 271.463 340.993 274.074C310.793 276.111 281.909 279.77 253.971 283.302C208.028 289.124 164.628 294.616 115.315 293.656C29.505 291.987 -59.8378 294.636 -146.224 297.207C-214.384 299.235 -283.757 301.293 -352.7 301.293C-417.327 301.293 -481.6 299.488 -544.202 294.141C-530.07 304.126 -511.755 311.724 -489.774 316.751C-470.262 321.205 -448.074 323.718 -421.939 324.416C-374.252 325.697 -322.811 320.448 -281.48 316.227C-272.079 315.266 -263.209 314.363 -254.828 313.577C-239.809 312.17 -224.747 310.686 -210.171 309.25C-117.31 300.128 -29.6085 291.511 65.5289 297.644C135.123 302.137 194.177 299.119 256.691 295.917C286.595 294.383 317.519 292.812 350.645 292.006C355.228 291.899 359.766 291.841 364.245 291.841L364.26 291.861Z" fill="white" fill-opacity="0.4"/>
<circle cx="1060.5" cy="198.5" r="157.5" fill="white" fill-opacity="0.28"/>
</g>
<defs>
<linearGradient id="paint0_linear_0_1318" x1="-273.5" y1="94.5" x2="1043.71" y2="259.413" gradientUnits="userSpaceOnUse">
<stop offset="0.16" stop-color="#FFE066"/>
<stop offset="1" stop-color="#FFD43B"/>
</linearGradient>
<clipPath id="clip0_0_1318">
<rect width="1156" height="262" rx="16" fill="white"/>
</clipPath>
</defs>
</svg>
